<svg width="317" height="210" viewBox="0 0 317 210" fill="none" xmlns="http://www.w3.org/2000/svg">
<path d="M10.8829 134.131C18.5676 121.922 29.0946 112.195 40.0237 103.44C49.1811 96.0977 59.2842 88.5378 63.0613 76.8233C65.1265 70.4365 65.0667 63.3762 67.3873 57.0981C70.4797 48.729 80.061 38.5894 88.2239 34.9344C100.713 29.3405 115.805 37.8236 128.772 33.4626C134.131 31.6595 135.544 28.2217 139.234 24.6102C143.185 20.7433 147.935 17.3762 152.5 14.2751C161.451 8.19243 171.364 3.30458 182.037 1.18108C200.836 -2.56083 220.89 2.78321 236.406 14.4543C245.732 21.4711 253.444 30.6765 259.21 41.0225C264.721 50.9176 267.155 61.8882 272.259 71.8811C281.824 90.607 301.677 100.986 311.068 119.82C317.975 133.685 318.258 150.63 314.622 165.918C310.986 181.201 303.753 195.142 296.155 208.572C296.117 208.632 296.084 208.687 296.052 208.741H283.508C235.64 208.578 29.3989 207.937 24.4968 208.904H14.9644C8.01338 202.854 1.67109 186.143 0.404806 176.052C-1.44297 161.367 3.2037 146.339 10.8829 134.131Z" fill="#FFDF80"/>
<path d="M110.952 118.836C112.691 121.562 117.234 124.74 120.457 124.696C131.435 124.495 135.049 117.022 136.234 114.301C136.011 114.247 135.636 114.204 135.37 114.171C133.348 113.878 131.283 111.879 130.68 109.625C129.903 106.693 128.946 100.957 129.06 97.3133L115.175 104.993C115.196 106.046 115.267 107.198 115.365 108.36C115.436 109.066 115.506 109.761 115.588 110.434C115.664 111.081 115.751 111.694 115.832 112.259C116.088 114.16 115.24 116.045 113.637 117.093L110.952 118.836Z" fill="#FE8E68"/>
<path d="M109.756 88.9725C110.506 90.9385 110.191 93.1706 109.43 95.1312C108.892 96.516 107.697 95.2941 106.208 95.3212C103.903 95.3593 102.104 92.9642 100.713 86.6154C99.8272 81.9557 99.6044 79.5932 99.7837 79.1425C100.42 77.5295 102.517 76.666 104.246 76.5139" fill="#3D302A"/>
<path d="M106.251 75.0091C102.621 79.381 101.3 91.6821 104.366 100.252C106.545 106.346 109.078 110.278 112.034 110.153C116.523 109.963 125.224 106.275 128.055 103.196C133.159 97.6507 131.675 86.778 130.621 79.935C129.664 73.7166 126.751 65.6407 118.931 67.1777C113.789 68.177 109.507 71.0825 106.251 75.0091Z" fill="#FE8E68"/>
<path d="M126.871 78.9409C126.066 79.9022 124.648 80.114 123.479 80.304C121.909 80.5593 121.132 81.0915 120.316 82.5199C119.8 83.4323 119.284 84.4316 118.36 84.9258C117.925 85.1593 117.262 85.1919 117.05 84.7466C117.463 84.4696 117.605 83.9048 117.501 83.416C117.398 82.9326 117.099 82.5144 116.784 82.1288C116.518 82.4873 116.49 82.9652 116.344 83.3942C116.148 83.9591 115.73 84.437 115.197 84.7031C115.11 84.7466 115.018 84.7846 114.925 84.7683C114.8 84.752 114.702 84.6434 114.621 84.5456C114.05 83.8613 113.49 82.5579 112.697 82.1397C112.539 82.8837 112.251 83.4757 111.795 84.0894C111.393 84.6271 110.914 85.181 110.257 85.3059C110.045 85.3494 109.779 85.3168 109.681 85.1267C109.556 84.8932 109.751 84.6597 109.719 84.4207C109.692 84.198 109.588 84.1003 109.474 83.9102C109.181 83.4268 108.92 82.9598 108.534 82.5362C107.757 83.4214 106.909 84.236 106.001 84.9855C105.8 85.1484 105.507 85.3114 105.306 85.1484C105.197 85.0615 105.17 84.9149 105.148 84.7737C105.034 84.084 104.925 83.3943 104.811 82.7045C104.746 82.3189 104.523 81.8138 104.143 81.9116C103.958 81.9605 103.849 82.1397 103.746 82.3026C103.621 82.509 101.387 84.8606 101.344 84.6814C100.996 83.3454 100.284 82.1288 99.9364 80.7928C97.7027 72.1902 107.681 65.2766 115.306 65.2386C117.001 65.2278 118.588 65.5862 120.235 65.9501C121.99 66.3411 123.806 66.6289 125.398 67.5033C127.632 68.7253 129.322 70.9465 128.887 73.5968" fill="#3D302A"/>
<path d="M123.197 76.6657C122.088 77.9202 121.794 79.6853 121.691 81.3526C121.539 83.8671 121.746 86.4794 122.909 88.7115C123.24 89.3469 123.485 92.4914 123.995 92.3177C124.159 92.2633 124.131 89.8249 124.561 88.5106C125.224 86.474 128.278 85.6973 129.653 86.9845C131.849 89.0319 130.561 91.5193 129.832 93.0671C129.398 94.0012 128.707 95.0494 128.588 96.0378C128.441 97.3033 128.398 101.914 129.224 102.989C129.914 103.891 130.648 99.5354 131.273 98.6773C135.897 92.2851 140.332 76.0085 132.436 72.4784C131.234 71.9408 127.528 71.6638 126.403 72.3481" fill="#3D302A"/>
<path d="M93.9577 206.052C93.5012 206.128 93.0393 206.194 92.561 206.21C90.0176 206.291 87.5611 205.732 85.0775 205.308C82.8927 204.934 82.3004 204.727 82.3438 202.093C82.7243 181.233 85.7949 160.427 91.3165 140.305C92.1589 137.231 93.0773 134.136 94.6914 131.388C97.4468 126.701 103.773 122.655 108.626 120.385C109.311 120.064 112.148 121.867 112.838 121.558C113.441 121.286 113.974 120.863 114.582 120.596C116.365 119.82 117.561 121.444 119.05 122.122C119.821 122.47 120.68 122.693 121.528 122.655C122.218 122.628 122.843 122.209 123.474 122.535C126.31 124.002 133.354 113.118 133.354 113.118L136.403 116.306L145.332 125.653L167.647 156.375C167.647 156.375 171.695 181.553 174.478 198.058C174.962 200.904 176.875 207.057 177.255 209.213C177.174 208.746 158.207 208.621 157.185 208.621C144 208.621 131.718 208.621 118.528 208.621C116.36 208.621 110.528 209.539 109.006 207.948C107.131 205.993 104.963 197.021 104.849 194.506C104.474 186.05 105.055 177.659 105.17 169.154C105.121 172.614 104.126 175.742 103.702 179.131C103.153 183.492 102.371 187.848 101.664 192.187C101.099 195.674 100.555 199.171 100.121 202.68C99.925 204.26 100.175 205.2 98.8381 205.819C97.724 206.318 95.2729 205.83 93.9577 206.052Z" fill="#BC744A"/>
<path d="M101.121 198.829C102.153 198.405 108.528 196.825 111.403 196.227C112.909 195.918 119.735 194.147 121.316 194.147C122.898 194.147 125.05 196.407 125.05 196.407L124.479 204.178C122.957 204.026 120.919 204.814 119.827 204.966C118.735 205.118 115.023 205.14 112.74 203.994C112.61 203.928 112.49 203.858 112.371 203.787C111.452 204.602 110.3 205.395 109.023 205.46C109.023 205.46 108.023 205.357 108.121 204.955C108.164 204.759 108.827 203.749 109.49 202.761C108.512 203.755 106.914 205.368 105.072 205.46C105.072 205.46 104.072 205.357 104.17 204.955C104.224 204.716 105.181 203.288 105.952 202.153C105.941 202.163 105.925 202.169 105.92 202.18C105.11 202.891 103.186 205.346 100.909 205.46C100.909 205.46 99.9089 205.357 100.007 204.955C100.039 204.808 100.42 204.205 100.882 203.505C100.3 203.95 99.5883 204.423 98.7242 204.852C96.2623 206.068 94.8601 205.145 94.8601 204.852C94.8547 204.553 100.088 199.252 101.121 198.829Z" fill="#FE8E68"/>
<path d="M123.289 189.802C123.289 189.802 119.322 192.05 119.675 196.83C120.028 201.609 121.463 207.149 127.452 206.567C133.441 205.986 123.289 189.802 123.289 189.802Z" fill="#874C2E"/>
<path d="M128.74 206.095C143.098 211.075 162.31 206.318 174.489 198.047C182.12 192.876 186.989 186.31 186.168 179.896C184.043 163.234 170.94 125.044 159.604 119.472C151.897 115.681 142.55 114.111 137.338 113.481C134.892 113.183 133.365 113.112 133.365 113.112L135.256 118.445L144.723 145.122C145.077 160.953 156.413 170.354 154.158 174.042C151.903 177.719 134.093 181.689 124.74 187.983C122.153 189.732 118.871 202.381 128.74 206.095Z" fill="#BC744A"/>
<path d="M186.168 180.309L186.201 181.423C186.201 181.607 186.228 181.792 186.201 181.977L186.136 182.525C186.081 182.889 186.081 183.264 185.989 183.617L185.728 184.687C185.293 186.088 184.69 187.44 183.864 188.657C182.288 191.133 180.201 193.262 177.897 195.087C173.283 198.748 167.967 201.485 162.424 203.472C156.892 205.509 151.093 206.85 145.207 207.339C142.267 207.589 139.305 207.622 136.365 207.372C133.419 207.144 130.495 206.606 127.658 205.721C130.436 206.78 133.37 207.404 136.321 207.768C139.283 208.105 142.272 208.143 145.25 207.964C148.229 207.795 151.191 207.35 154.104 206.709C157.017 206.074 159.892 205.248 162.701 204.238C165.5 203.201 168.239 201.99 170.859 200.556C173.473 199.117 176.005 197.498 178.288 195.565C180.576 193.648 182.657 191.432 184.195 188.858C184.983 187.581 185.543 186.175 185.929 184.736C186.315 183.291 186.342 181.776 186.168 180.309Z" fill="#874C2E"/>
<path d="M144.724 145.123C144.713 148.126 145.131 151.135 145.914 154.046C146.702 156.957 147.854 159.764 149.191 162.469C149.859 163.821 150.571 165.146 151.305 166.455C152.028 167.77 152.772 169.073 153.381 170.409C153.68 171.077 153.941 171.767 154.044 172.446C154.071 172.777 154.099 173.119 154.006 173.407C153.984 173.564 153.892 173.684 153.838 173.825C153.734 173.95 153.664 174.086 153.533 174.205C152.561 175.177 151.169 175.834 149.849 176.47C144.425 178.941 138.664 180.771 133.175 183.237C130.431 184.47 127.713 185.8 125.186 187.462L124.719 187.777C124.561 187.886 124.414 188.027 124.262 188.152C123.98 188.429 123.735 188.733 123.539 189.064C123.137 189.721 122.865 190.438 122.653 191.166C122.251 192.627 122.083 194.131 122.072 195.636C122.17 194.142 122.42 192.649 122.86 191.231C123.327 189.825 124.05 188.456 125.403 187.799C127.941 186.224 130.664 184.969 133.425 183.813C136.191 182.672 138.99 181.591 141.8 180.543C144.61 179.479 147.436 178.463 150.196 177.203C151.555 176.53 152.952 175.894 154.109 174.727C154.256 174.585 154.376 174.39 154.501 174.221C154.593 174.015 154.718 173.82 154.751 173.602C154.881 173.168 154.838 172.739 154.8 172.332C154.669 171.528 154.376 170.8 154.06 170.105C153.414 168.715 152.658 167.417 151.925 166.108C151.191 164.799 150.452 163.501 149.751 162.181C146.946 156.919 145.006 151.135 144.724 145.123Z" fill="#874C2E"/>
<path d="M107.512 120.901C108.882 122.258 114.98 126.598 120.795 126.598C121.762 126.598 122.784 126.511 123.865 126.31C128.746 125.419 132.854 122.166 135.257 118.44C135.702 117.74 136.093 117.018 136.414 116.295C136.849 115.361 137.159 114.405 137.338 113.482C134.892 113.183 132.555 112.57 132.175 112.135C131.762 114.981 128.246 120.119 122.92 121.085C122.251 121.21 121.621 121.265 121.018 121.275H121.007C118.507 121.319 116.588 120.52 115.279 119.717C115.268 119.717 112.73 117.718 112.719 117.707L107.512 120.901Z" fill="#BC744A"/>
<path d="M118.697 87.8476C117.474 86.7723 114.539 87.1904 113.289 87.9888C113.045 88.1463 112.779 87.7933 112.985 87.5923C113.827 86.7505 115.24 86.7016 116.365 86.7451C117.219 86.7777 118.615 86.7397 118.909 87.7335C118.941 87.8476 118.784 87.9236 118.697 87.8476Z" fill="#3D302A"/>
<path d="M106.768 88.5753C106.023 88.521 105.327 88.3798 104.583 88.5644C103.838 88.7491 103.289 89.2053 102.626 89.5529C102.485 89.6289 102.355 89.4823 102.414 89.341C103.067 87.9018 105.594 87.375 106.855 88.2386C106.99 88.3363 106.958 88.5861 106.768 88.5753Z" fill="#3D302A"/>
<path d="M109.762 92.6704C109.811 93.7892 109.767 94.9351 109.583 96.0431C109.517 96.4395 109.007 97.504 109.088 97.8407C109.181 98.21 109.827 98.6716 110.05 99.0409C110.164 99.2256 109.941 99.4157 109.767 99.3233C109.104 98.9812 108.344 98.4707 108.485 97.6723C108.61 96.9283 108.952 96.2168 109.066 95.4511C109.208 94.5278 109.213 93.5991 109.3 92.665C109.322 92.3772 109.751 92.3663 109.762 92.6704Z" fill="#CC6144"/>
<path d="M121.473 106.546C119.941 108.344 117.321 109.55 114.968 109.62C114.734 109.626 114.674 109.246 114.914 109.202C117.408 108.74 119.25 107.882 121.245 106.313C121.403 106.182 121.615 106.383 121.473 106.546Z" fill="#CC6144"/>
<path d="M133.37 112.221C136.903 110.549 138.794 115.855 139.153 118.456C139.837 123.458 137.62 128.112 135.598 132.538C133.479 137.187 131.055 141.679 128.886 146.3C127.767 148.695 126.772 151.145 126.028 153.681C125.245 156.331 125.158 159.286 124.196 161.844C124.066 162.191 123.615 162.115 123.571 161.757C123.104 158.053 124.745 153.496 126.022 150.031C127.245 146.713 128.827 143.541 130.403 140.381C132.462 136.259 134.549 132.093 136.24 127.803C137.087 125.652 137.788 123.404 137.941 121.079C138.06 119.222 137.381 111.667 133.767 113.161C133.234 113.389 132.843 112.471 133.37 112.221Z" fill="#874C2E"/>
<path d="M112.729 117.935C108.284 119.624 109.838 127.744 110.447 131.263C111.186 135.548 112.572 139.702 114.311 143.683C117.697 151.444 122.262 158.646 126.349 166.043C126.686 166.651 125.762 167.194 125.414 166.591C120.333 157.679 114.545 149.033 111.191 139.268C109.637 134.739 108.643 129.97 108.572 125.169C108.528 121.976 108.996 118.093 112.458 116.925C113.094 116.708 113.344 117.696 112.729 117.935Z" fill="#874C2E"/>
<path d="M118.658 162.268C122.093 162.165 125.528 162.068 128.962 161.964C129.517 161.948 129.843 162.41 129.903 162.904C130.549 168.058 130.772 173.31 131.549 178.442C131.642 179.045 131.31 179.62 130.642 179.631C127.256 179.702 123.865 179.805 120.479 179.838C120.3 179.838 120.153 179.8 120.028 179.729C120.022 179.729 120.017 179.724 120.012 179.718C119.979 179.702 119.946 179.68 119.914 179.658C119.756 179.55 119.631 179.381 119.571 179.142C118.262 174.075 118.262 168.4 117.718 163.203C117.664 162.692 118.191 162.279 118.658 162.268Z" fill="#874C2E"/>
<path d="M105.028 183.172C104.882 180.375 105.159 177.546 105.175 174.743C105.197 171.843 105.11 168.943 104.952 166.043C104.8 163.235 104.577 160.427 104.257 157.636C103.925 154.757 103.322 151.906 103.018 149.028C102.974 148.642 103.594 148.571 103.686 148.935C104.36 151.58 104.621 154.399 104.941 157.109C105.289 160.074 105.55 163.056 105.691 166.043C105.833 168.937 105.849 171.843 105.784 174.743C105.719 177.546 105.719 180.44 105.143 183.188C105.137 183.259 105.034 183.237 105.028 183.172Z" fill="#874C2E"/>
<path d="M133.593 117.441C132.675 121.205 128.457 124.398 124.751 124.952C124.436 125.001 124.3 124.567 124.615 124.469C126.528 123.861 128.332 123.073 129.876 121.764C131.37 120.499 132.283 118.94 133.332 117.333C133.424 117.202 133.631 117.284 133.593 117.441Z" fill="#874C2E"/>
<path d="M121.246 124.973C120.599 124.826 119.958 124.674 119.322 124.495C118.751 124.332 118.153 124.224 117.659 123.892C117.512 123.795 117.566 123.561 117.751 123.556C118.92 123.523 120.278 124.169 121.365 124.555C121.626 124.642 121.523 125.033 121.246 124.973Z" fill="#874C2E"/>
<path d="M127.544 89.7054C127.185 89.1568 126.631 90.8621 126.609 91.0034C126.506 91.6659 126.642 92.2579 126.81 92.8933C126.876 93.1323 126.137 92.9422 126.05 92.7738C125.571 91.8506 125.533 90.243 126.365 89.4827C126.887 89.0102 127.897 89.1405 128.272 89.7325C128.446 89.9986 127.664 89.89 127.544 89.7054Z" fill="#CC6144"/>
<path d="M126.37 91.0136C126.376 90.943 126.37 90.8724 126.348 90.8018C126.343 90.7801 126.343 90.7638 126.365 90.7475C126.658 90.3891 127.12 90.2207 127.566 90.3891C127.593 90.3999 127.685 90.4434 127.647 90.4868C127.539 90.6009 127.332 90.5955 127.196 90.6606C127.082 90.7149 127.001 90.791 126.903 90.8724C126.805 90.9593 126.685 90.9973 126.588 91.0788C126.539 91.1168 126.37 91.0788 126.37 91.0136Z" fill="#CC6144"/>
<path d="M113.941 104.955C113.528 105.526 112.643 105.824 112.001 105.439C111.952 105.412 111.958 105.374 112.018 105.379C112.588 105.406 113.11 105.243 113.452 104.765C113.534 104.651 114.039 104.82 113.941 104.955Z" fill="#CC6144"/>
<path d="M117.974 93.5774C118.039 94.0173 118.023 94.3703 117.773 94.7559C117.561 95.0818 117.284 95.3262 116.893 95.4022C116.849 95.4131 116.621 95.3642 116.675 95.2881C116.887 94.9949 117.208 94.8265 117.393 94.5007C117.556 94.2074 117.708 93.8652 117.73 93.5285C117.73 93.4633 117.963 93.5231 117.974 93.5774Z" fill="#CC6144"/>
<path d="M104.935 96.2665C104.897 96.2665 104.793 96.2062 104.881 96.2062C104.924 96.2062 105.023 96.2665 104.935 96.2665Z" fill="#CC6144"/>
<path d="M104.332 96.1512C103.974 95.9665 103.468 95.4289 103.805 95.0216C103.832 94.989 103.936 95.027 103.947 95.0596C104.115 95.4452 104.153 95.8579 104.566 96.0697C104.811 96.1946 104.447 96.2055 104.332 96.1512Z" fill="#CC6144"/>
<path d="M104.87 161.452C104.718 159.144 103.658 157.341 102.245 155.554C101.148 154.17 99.778 153.273 98.5172 152.079C98.3813 151.948 98.5226 151.704 98.7019 151.758C100.539 152.334 102.028 154.197 103.126 155.685C104.278 157.244 105.876 159.443 105.169 161.485C105.115 161.659 104.887 161.626 104.87 161.452Z" fill="#874C2E"/>
<path d="M105.148 162.827C104.566 162.115 104.197 161.252 103.686 160.486C103.082 159.585 102.376 158.743 101.599 157.982C101.447 157.836 100.006 156.364 99.8651 157.543C99.7782 158.287 101.267 158.569 101.707 158.835C102.202 159.134 102.534 159.367 102.534 159.976C102.534 160.171 102.24 160.269 102.148 160.079C101.561 158.9 99.4467 158.944 99.2238 157.363C99.1369 156.728 99.6423 156.326 100.262 156.391C101.376 156.511 102.534 158.129 103.159 158.906C104.028 159.992 105.055 161.344 105.267 162.751C105.278 162.816 105.197 162.887 105.148 162.827Z" fill="#874C2E"/>
<path d="M126.724 191.465C126.719 193.344 126.751 195.164 127.414 196.95C128.072 198.732 129.262 200.09 130.36 201.594C130.441 201.708 130.284 201.838 130.175 201.779C126.958 199.997 125.327 194.838 126.431 191.427C126.479 191.27 126.724 191.291 126.724 191.465Z" fill="#874C2E"/>
<path d="M112.392 174.177C112.854 177.072 113.387 179.711 114.887 182.286C116.376 184.844 118.495 187.065 120.979 188.672C121.18 188.803 121.001 189.112 120.794 188.993C115.811 186.158 111.615 180.184 111.963 174.237C111.974 174.009 112.349 173.922 112.392 174.177Z" fill="#874C2E"/>
<path d="M96.0666 100.496C95.4416 100.241 94.6373 99.9968 94.2406 99.4157C94.1808 99.3288 94.2623 99.2148 94.3601 99.2094C95.0449 99.1876 95.7079 99.6927 96.2623 100.035C96.4905 100.181 96.3438 100.605 96.0666 100.496Z" fill="#874C2E"/>
<path d="M95.9795 102.121C95.5991 102.382 94.9849 102.621 94.5502 102.354C94.4252 102.278 94.4197 102.088 94.5502 102.012C94.7295 101.909 94.9415 101.882 95.1371 101.833C95.3545 101.779 95.5665 101.714 95.7675 101.627C96.0719 101.507 96.2132 101.958 95.9795 102.121Z" fill="#874C2E"/>
<path d="M96.5558 105.205C96.1863 105.423 95.6971 105.776 95.2461 105.748C95.1374 105.743 95.0558 105.623 95.1156 105.526C95.3547 105.14 95.9037 104.95 96.3004 104.776C96.5884 104.64 96.8439 105.032 96.5558 105.205Z" fill="#874C2E"/>
<path d="M291.753 208.904H277.025H252.248H241.928H215.89H24.4969H14.9644H6.88307" stroke="black" stroke-width="2.1886" stroke-miterlimit="10" stroke-linecap="round"/>
<path d="M295.356 208.904H311.318" stroke="black" stroke-width="2.1886" stroke-miterlimit="10" stroke-linecap="round"/>
<path d="M1.90517 208.904H4.57906" stroke="black" stroke-width="2.1886" stroke-miterlimit="10" stroke-linecap="round"/>
<path d="M38.9042 205.623H129.12C129.99 205.623 130.701 206.329 130.701 207.204V207.318C130.701 208.187 129.995 208.898 129.12 208.898H38.9042C38.0347 208.898 37.3227 208.192 37.3227 207.318V207.204C37.3227 206.329 38.0292 205.623 38.9042 205.623Z" fill="#2D2442"/>
<path d="M21.2907 165.462C40.0621 165.272 58.8335 165.082 77.6048 164.891C80.2678 164.864 82.9363 164.837 85.5993 164.81C86.0123 164.805 86.5449 165.049 86.7242 165.451C91.8818 177.35 97.0393 189.249 102.197 201.148C102.93 202.848 103.67 204.543 104.403 206.243C104.43 206.297 104.441 206.357 104.458 206.411C104.458 206.411 104.458 206.411 104.458 206.416C104.474 206.471 104.49 206.525 104.501 206.579C104.648 207.269 104.3 208.078 103.452 208.182C103.257 208.241 103.055 208.252 102.86 208.203C83.5667 208.355 64.2736 208.502 44.9805 208.654C42.2251 208.676 39.4697 208.697 36.7197 208.719C36.1056 208.725 35.6708 208.306 35.4643 207.763C30.3231 194.208 25.1765 180.652 20.0353 167.096C19.7255 166.298 20.5081 165.467 21.2907 165.462Z" fill="#2D2442"/>
<path d="M21.291 164.571C38.6167 164.397 55.9479 164.223 73.2737 164.044C75.3824 164.022 77.4965 164.001 79.6051 163.979C81.5127 163.957 83.7192 163.626 85.605 163.919C88.4039 164.354 89.1213 168.747 90.0778 170.952C93.5179 178.887 96.9527 186.821 100.393 194.751C101.866 198.15 103.344 201.545 104.811 204.945C105.366 206.226 105.904 207.779 104.447 208.752C103.708 209.246 102.594 209.088 101.795 209.099C99.6537 209.126 97.507 209.132 95.3657 209.148C91.0778 209.181 86.7898 209.213 82.5018 209.246C73.9259 209.311 65.35 209.382 56.7795 209.447C52.5024 209.479 48.2307 209.512 43.9536 209.545C42.2308 209.555 40.5134 209.572 38.7906 209.583C37.4646 209.593 36.1494 209.849 35.1222 208.871C34.0081 207.812 33.6331 205.406 33.106 204.021C32.356 202.039 31.6006 200.051 30.8506 198.069C29.0952 193.442 27.3398 188.809 25.5844 184.182C23.954 179.886 22.3235 175.585 20.6931 171.289C19.8779 169.138 17.6062 165.472 21.0627 164.582C22.1768 164.294 22.6496 166.016 21.5355 166.303C20.3942 166.597 24.28 175.748 24.6659 176.769C25.9213 180.076 27.1767 183.384 28.4267 186.686C29.6821 189.993 30.9375 193.301 32.1875 196.603C32.7527 198.091 33.3179 199.579 33.8831 201.067C34.4973 202.691 34.9429 205.091 35.9537 206.52C37.2526 208.366 39.9645 207.785 41.8884 207.769C43.6384 207.752 45.3829 207.741 47.1329 207.725C50.7035 207.698 54.2795 207.671 57.8501 207.644C64.9967 207.589 72.1433 207.53 79.2899 207.475C86.4365 207.421 93.5832 207.361 100.73 207.307C101.469 207.302 102.719 207.617 103.241 206.959C103.909 206.123 103.529 207.329 103.279 205.824C103.067 204.57 102.126 203.169 101.621 202.001C100.127 198.552 98.632 195.109 97.1374 191.66C94.2734 185.051 91.4093 178.436 88.5398 171.827C87.9039 170.36 87.393 168.063 86.3931 166.868C85.0561 165.272 82.9366 165.701 81.1105 165.722C77.415 165.76 73.7248 165.798 70.0292 165.836C53.7849 165.999 37.5407 166.162 21.2964 166.331C20.1388 166.363 20.1388 164.582 21.291 164.571Z" fill="#2D2442"/>
<path d="M64.5122 191.275C62.108 191.275 60.159 189.855 60.159 188.103C60.159 186.352 62.108 184.932 64.5122 184.932C66.9163 184.932 68.8653 186.352 68.8653 188.103C68.8653 189.855 66.9163 191.275 64.5122 191.275Z" fill="#5A4F72"/>
<path d="M56.1431 190.08C54.8885 190.08 53.8714 189.341 53.8714 188.429C53.8714 187.517 54.8885 186.778 56.1431 186.778C57.3977 186.778 58.4148 187.517 58.4148 188.429C58.4148 189.341 57.3977 190.08 56.1431 190.08Z" fill="#5A4F72"/>
<path d="M162.538 197.303C159.761 196.972 154.842 196.222 154.717 194.517C156.516 193.355 158.495 192.181 160.636 192.078C162.342 191.997 163.994 192.621 165.554 193.316C166.88 193.908 168.185 194.549 169.456 195.244C169.978 195.532 171.348 196.553 171.369 197.265C171.397 198.15 169.772 197.629 169.125 197.672C166.924 197.83 164.717 197.569 162.538 197.303Z" fill="#C1ADA4"/>
<path d="M169.097 195.858C169.097 195.858 165.402 207.941 163.451 208.235C161.494 208.523 142.375 208.669 141.87 208.452C141.364 208.235 141.288 207.871 141.288 207.871C141.288 207.871 129.12 208.669 128.902 208.376C128.685 208.083 128.902 206.638 129.484 206.421C130.065 206.204 148.456 202.082 150.049 201.5C151.641 200.919 156.641 201.066 156.641 201.066L157.657 194.044L169.097 195.858Z" fill="#FE8E68"/>
<path d="M164.636 44.2204C163.44 45.5021 162.788 47.278 162.875 49.0322C162.929 50.0749 163.228 51.0905 163.543 52.0898C164.147 54.0124 164.864 56.0001 166.359 57.3524C166.603 57.5696 166.908 57.7814 167.228 57.7271C167.826 55.8806 168.429 54.0395 169.027 52.193C169.315 51.3078 169.603 50.4171 169.766 49.4993C170.038 47.946 169.94 46.3222 169.418 44.8395C169.179 44.1661 168.837 43.4981 168.266 43.0636C166.88 41.9991 165.581 43.2102 164.636 44.2204Z" fill="#433735"/>
<path d="M200.059 146.452C200.255 148.342 199.961 150.335 199.858 152.225C199.798 153.3 199.738 154.376 199.744 155.451C199.744 156.076 199.929 156.836 199.717 157.423C199.695 157.482 199.603 157.526 199.554 157.466C198.717 156.45 199.189 154.023 199.233 152.795C199.298 150.683 199.401 148.565 199.483 146.452C199.488 146.072 200.021 146.083 200.059 146.452Z" fill="#9B8580"/>
<path d="M194.673 142.727C196.684 147.289 197.798 151.932 200.554 156.196C200.711 156.435 200.32 156.663 200.168 156.418C197.733 152.595 195.081 147.343 194.44 142.819C194.423 142.694 194.608 142.58 194.673 142.727Z" fill="#9B8580"/>
<path d="M238.868 208.903L237.629 167.156L228.548 208.903H202.505C204.233 195.016 211.912 136.965 219.934 132.045L251.455 112.433C251.455 112.433 269.694 117.185 269.297 143.531C267.84 168.91 264.737 198.769 263.639 208.903H238.868Z" fill="#2D2442"/>
<path d="M154.788 194.56C155.462 195.586 158.908 194.815 159.924 194.913C160.837 195 161.696 195.347 162.582 195.576C165.397 196.309 168.544 195.923 171.076 197.357C171.152 197.4 171.245 197.449 171.332 197.422C171.429 197.395 171.473 197.286 171.505 197.194C173.125 192.719 174.386 188.048 175.804 183.486C177.935 176.632 180.06 169.773 182.19 162.919C183.288 159.378 184.391 155.837 185.489 152.296L193.222 116.49L189.782 91.2526L188.967 85.3003L188.907 84.8495C188.907 84.8495 188.739 84.9092 188.429 85.0179C187.353 85.398 184.587 86.4299 181.527 87.9234C176.619 90.3185 170.946 93.9083 170.174 97.9707C170.174 97.987 170.169 97.9978 170.169 98.0141C169.761 100.865 169.299 103.706 168.853 106.552C168.06 111.597 167.256 116.637 166.446 121.677C165.44 127.949 164.435 134.222 163.424 140.495C162.37 147.034 161.315 153.567 160.261 160.101C159.321 165.933 158.375 171.766 157.43 177.594C156.756 181.754 156.082 185.914 155.408 190.074C155.223 191.225 155.033 192.377 154.848 193.528C154.816 193.729 154.642 194.202 154.707 194.397C154.729 194.457 154.756 194.511 154.788 194.56Z" fill="#EED9CE"/>
<path d="M188.913 84.8439L188.973 85.2946L189.788 91.247L193.228 116.485L210.054 126.841C210.934 127.384 211.69 131.099 212.048 132.033C213.211 135.058 214.222 138.203 215.554 141.157C215.825 141.766 216.07 143.411 216.673 143.78C217.885 144.524 222.82 143.503 224.341 143.406C229.977 143.042 235.678 142.216 240.836 139.789C244.912 137.866 248.526 135.151 252.363 132.821C254.71 131.398 257.325 130.507 259.803 129.361C261.46 128.596 265.042 127.129 265.683 125.179C265.868 124.615 265.58 124.017 265.308 123.496C264.123 121.204 263.335 118.44 261.939 116.311C260.651 114.35 259.058 112.58 257.803 110.565C255.27 106.519 253.037 102.245 249.874 98.633C244.493 92.4852 239.966 85.463 234.423 79.3369C231.961 76.616 224.287 74.0254 220.619 73.8734C217.282 73.7376 214.048 74.2861 211.217 75.0736C208.94 75.7145 206.918 76.5128 205.326 77.2297C202.989 78.2887 201.565 79.1848 201.565 79.1848L188.913 84.8439Z" fill="#EED9CE"/>
<path d="M182.695 118.423C180.923 117.332 172.646 112.053 171.902 110.146C171.559 109.261 169.679 106.535 168.059 103.977C167.097 102.462 164.668 99.4909 164.054 98.8555C163 97.7639 161.483 95.0593 160.565 95.95C159.424 97.0579 161.206 99.8276 162.212 101.528C162.581 102.152 162.978 102.777 163.135 103.483C163.293 104.189 163.26 104.715 162.842 105.313C162.614 105.639 161.07 105.791 160.549 105.769C156.641 105.595 154.945 105.829 152.027 104.743C149.109 103.656 146.386 102.125 143.636 100.669C143.163 100.42 142.88 99.9091 141.815 99.8114C141.283 99.7625 140.163 99.8331 140.223 100.365C140.272 100.778 143.554 103.341 143.891 103.58C145.712 104.873 145.505 104.726 147.326 106.019C147.609 106.22 147.913 106.453 147.984 106.79C148.043 107.073 147.918 107.366 147.913 107.654C147.902 108.175 148.261 108.62 148.619 109.001C149.244 109.669 149.902 110.293 150.598 110.885C151.565 111.716 150.777 112.422 151.831 113.15C152.994 113.954 156.005 114.768 157.201 115.518C158.152 116.12 159.114 116.729 160.163 117.147C161.418 117.647 162.76 117.869 164.086 118.141C167.711 118.89 174.059 125.456 177.124 127.623" fill="#FE8E68"/>
<path d="M161.875 117.675C161.875 117.675 157.315 117.099 153.69 115.415C150.065 113.732 141.104 108.203 141.104 108.203C141.104 108.203 140.979 107.888 141.076 107.671C141.169 107.453 142.533 107.149 143.631 107.622C144.728 108.094 151.75 111.141 151.75 111.141" fill="#FE8E68"/>
<path d="M162.777 116.142C162.777 116.142 157 114.936 153.375 113.253C149.75 111.569 140.788 106.041 140.788 106.041C140.788 106.041 140.663 105.726 140.761 105.508C140.859 105.291 142.217 104.987 143.315 105.459C144.413 105.937 151.435 108.979 151.435 108.979" fill="#FE8E68"/>
<path d="M160.951 112.824C160.951 112.824 155.174 111.619 151.549 109.935C147.924 108.252 142.293 105.373 139.103 103.195C138.891 103.054 138.837 102.413 138.935 102.191C139.033 101.973 140.391 101.669 141.489 102.147C142.587 102.625 149.608 105.666 149.608 105.666" fill="#FE8E68"/>
<path d="M182.375 78.2556C182.375 78.2556 168.397 86.7713 165.13 69.5389C164.337 62.4081 163.348 50.8184 169.293 46.289C175.239 41.7596 188.918 41.2383 189.217 54.6853C188.695 58.5467 188.847 58.8454 188.847 58.8454C188.847 58.8454 193.978 57.4333 192.864 63.8201C192.271 66.7148 191.499 67.7576 191.499 67.7576C191.499 67.7576 201.994 75.9691 202.005 75.98C202.972 76.7349 203.782 77.9949 205.119 77.3866C205.266 77.3214 205.407 77.2345 205.564 77.2074C205.722 77.1802 205.907 77.2291 205.988 77.3703C206.037 77.4572 206.032 77.5658 206.037 77.669C206.054 78.185 206.255 78.6683 206.391 79.1625C206.918 81.0579 206.369 82.8339 205.369 84.474C204.521 85.8643 203.314 87.0483 201.891 87.8412C200.527 88.6015 198.994 89.0143 197.456 89.2912C195.521 89.6388 193.472 89.7746 191.559 89.2424C190.385 88.9165 189.586 88.5526 188.771 87.6022C188.619 87.423 188.472 87.2383 188.369 87.0265C188.135 86.5486 188.125 86.0001 188.13 85.4679C188.13 85.3918 188.135 85.3158 188.184 85.2561C188.233 85.1963 188.32 85.1854 188.396 85.1746C189.25 85.0334 188.684 84.5826 188.331 84.2133C187.978 83.844 187.619 83.4801 187.26 83.1108C186.51 82.3451 185.75 81.5847 184.989 80.8244C184.114 79.9663 183.244 79.1082 182.375 78.2556Z" fill="#FE8E68"/>
<path d="M169.831 55.3981C171.961 54.6161 175.641 55.4579 176.989 57.3533C177.081 57.4836 176.923 57.6954 176.771 57.6302C175.7 57.2066 174.804 56.5223 173.668 56.2019C172.396 55.8435 171.184 55.9412 169.896 55.8815C169.608 55.8761 169.57 55.4959 169.831 55.3981Z" fill="#433735"/>
<path d="M164.603 60.3131C164.924 61.345 164.603 62.5235 164.185 63.5228C163.766 64.5221 163.119 65.4019 162.484 66.2763C162.196 66.6673 161.907 67.0638 161.619 67.4548C162.516 67.7535 163.397 68.1228 164.239 68.5573C164.744 68.818 165.288 69.171 165.391 69.7304" fill="#FE8E68"/>
<path d="M181.875 115.405C192.07 120.135 207.945 128.678 207.945 128.678L210.222 112.233L234.211 112.428C234.211 112.428 227.271 150.662 221.917 154.23C221.917 154.23 215.575 158.982 205.266 151.852C198.461 147.143 182.636 134.771 174.859 128.004L181.875 115.405Z" fill="#EED9CE"/>
<path d="M226.938 143.112C227.096 140.484 228.341 137.632 229.009 135.091C229.96 131.484 230.911 127.878 231.803 124.256C233.406 117.706 234.775 111.124 236.205 104.542C236.248 104.352 236.569 104.39 236.552 104.59C236.02 111.156 234.286 117.722 232.705 124.093C231.835 127.607 230.938 131.121 229.955 134.602C229.194 137.29 228.656 140.777 227.199 143.183C227.134 143.297 226.933 143.259 226.938 143.112Z" fill="#DBC4BD"/>
<path d="M175.446 127.14C180.424 130.421 184.864 134.727 188.945 139.045C189.304 139.425 188.733 139.995 188.375 139.615C184.223 135.243 179.636 131.545 175.027 127.684C174.717 127.434 175.114 126.923 175.446 127.14Z" fill="#DBC4BD"/>
<path d="M192.087 120.683C190.44 120.433 188.788 119.592 187.304 118.864C186.011 118.228 184.304 117.626 183.451 116.425C183.299 116.208 183.549 115.996 183.755 116.029C185.163 116.241 186.527 117.387 187.793 118.022C189.266 118.761 190.902 119.304 192.293 120.184C192.576 120.357 192.385 120.732 192.087 120.683Z" fill="#DBC4BD"/>
<path d="M205.738 76.974C207.581 75.084 209.385 78.4512 209.939 79.9881C211.417 84.0994 210.537 89.0035 209.336 93.0604C207.88 98.0026 205.439 102.527 204.135 107.528C202.651 113.231 201.559 118.939 201.782 124.853C201.798 125.217 201.238 125.212 201.217 124.853C200.711 117.141 202.564 108.522 205.445 101.386C206.896 97.7853 208.532 94.3204 209.39 90.5079C209.874 88.3626 210.178 86.1251 210.081 83.9256C210.043 83.062 208.564 74.8505 206.124 77.3487C205.88 77.6094 205.494 77.2238 205.738 76.974Z" fill="#9B8580"/>
<path d="M187.379 84.0728C186.912 84.8494 186.45 85.626 185.983 86.3972C185.89 86.9131 185.798 87.4345 185.706 87.9504C185.657 88.5207 185.684 89.1018 185.722 89.6666C185.825 91.2144 186.206 92.7351 186.461 94.2666C186.945 97.2156 187.32 100.181 187.825 103.13C188.798 108.811 190.097 114.421 191.934 119.89C192.037 120.194 191.564 120.319 191.461 120.02C188.896 112.71 187.499 105.118 186.352 97.4709C185.825 93.9299 182.803 85.4848 187.575 83.6491C187.765 83.5731 187.95 83.7958 187.901 83.975C187.885 84.0293 187.869 84.0836 187.858 84.1325C187.771 84.3986 187.39 84.3389 187.379 84.0728Z" fill="#9B8580"/>
<path d="M193.994 154.007C193.989 153.524 194.429 153.035 194.934 153.067C198.364 153.296 201.787 153.529 205.217 153.757C205.733 153.79 206.141 154.159 206.157 154.697C206.304 159.97 206.027 165.309 206.304 170.571C206.331 171.055 205.853 171.549 205.364 171.511C201.983 171.256 198.603 171.028 195.228 170.74C195.201 170.74 195.179 170.729 195.152 170.724C194.766 170.745 194.402 170.55 194.32 170.05C193.51 164.869 194.032 159.242 193.994 154.007Z" fill="#D6CED7"/>
<path d="M193.342 61.6592C194.88 61.8656 196.054 62.2349 197.173 60.8228C197.625 60.258 197.983 59.666 198.684 59.3999C198.777 59.3673 198.847 59.4977 198.777 59.5574C197.907 60.3503 197.282 61.7135 196.135 62.1534C195.228 62.501 194.108 62.2511 193.266 61.833C193.157 61.7841 193.244 61.6429 193.342 61.6592Z" fill="#594C4A"/>
<path d="M172.212 67.0143C169.586 67.0143 167.457 64.8867 167.457 62.2622C167.457 59.6377 169.586 57.5101 172.212 57.5101C174.838 57.5101 176.967 59.6377 176.967 62.2622C176.967 64.8867 174.838 67.0143 172.212 67.0143Z" stroke="#F9F9F9" stroke-width="1.0943" stroke-miterlimit="10"/>
<path d="M167.31 61.0132C167.136 60.91 167.06 60.7471 166.902 60.6167C166.674 60.4266 166.375 60.318 166.087 60.2637C165.82 60.2148 165.532 60.2148 165.277 60.3126C165.038 60.4049 164.978 60.633 164.761 60.7253C164.701 60.7525 164.647 60.7416 164.603 60.6819C164.587 60.6602 164.57 60.633 164.549 60.6113C164.5 60.5461 164.516 60.4646 164.549 60.3995C164.826 59.8021 165.625 59.7532 166.19 59.8727C166.674 59.9759 167.543 60.3452 167.451 60.9534C167.451 61.0186 167.358 61.0403 167.31 61.0132Z" fill="#F9F9F9"/>
<path d="M193.407 53.741C190.977 55.4898 175.787 53.3446 170.88 51.0962C160.913 46.5287 159.934 38.4855 162.266 36.9757C162.548 36.7911 162.858 36.6499 163.19 36.6064C163.972 36.5141 164.69 36.9974 165.325 37.4591C165.075 36.5467 164.168 32.5875 166.586 31.0125C169.836 28.8999 173.923 32.4735 174.592 32.9188C179.227 36.0199 181.733 36.5467 181.733 36.5467C181.733 36.5467 180.918 28.7316 187.32 34.7327C189.336 36.6227 193.08 38.3878 195.091 40.2886C197.2 42.2818 198.401 45.5349 197.184 48.3155" fill="#433735"/>
<path d="M186.288 49.0056C184.896 50.1353 184.277 51.9438 183.875 53.6925C183.271 56.3211 183.032 59.1126 183.869 61.676C184.108 62.4038 183.809 65.771 184.38 65.6732C184.559 65.6461 184.962 63.0664 185.641 61.7521C186.701 59.7155 190.065 59.4385 191.288 61.0352C192.804 63.012 191.831 64.4078 191.157 66.3792C190.657 67.8456 191.152 69.6867 192.945 70.1918C194.619 70.6642 194.135 69.3988 194.804 68.2149C196.239 65.6623 197.739 63.4302 198.7 60.5898C200.217 56.1093 201.467 49.3098 196.777 46.2087C195.603 45.4321 191.733 44.4871 190.429 45.0085" fill="#433735"/>
<path d="M187.429 59.0043C186.728 60.3838 185.103 60.6553 183.723 61.0029C181.733 61.5026 179.603 61.8936 177.543 61.8882C177.185 61.8882 177.206 61.3885 177.543 61.3451C179.31 61.1224 181.065 60.9703 182.804 60.5902C184.239 60.2806 186.19 60.0036 187.163 58.8034C187.293 58.6459 187.51 58.8414 187.429 59.0043Z" fill="#F9F9F9"/>
<path d="M185.228 74.8355C184.489 76.2475 183.326 77.6433 181.88 78.371C181.815 78.4036 181.744 78.3222 181.798 78.2678C182.94 77.1111 184.076 76.0466 185.043 74.7323C185.124 74.6237 185.288 74.716 185.228 74.8355Z" fill="#CC6144"/>
<path d="M156.728 58.0749C156.049 57.6296 155.32 57.2114 154.777 56.5977C154.739 56.5543 154.777 56.4619 154.842 56.4891C155.603 56.7824 156.244 57.3146 156.891 57.7979C157.054 57.9174 156.907 58.189 156.728 58.0749Z" fill="#433735"/>
<path d="M155.744 59.9652C155.233 59.8566 154.592 59.7371 154.157 59.4384C154.043 59.3569 154.087 59.1886 154.228 59.1777C154.755 59.1451 155.364 59.3841 155.858 59.5579C156.114 59.6448 156.011 60.0195 155.744 59.9652Z" fill="#433735"/>
<path d="M155.56 62.2948C155.245 62.208 154.929 62.1374 154.598 62.0993C154.331 62.0722 154.06 62.0722 153.799 62.0124C153.723 61.9961 153.701 61.8767 153.777 61.8386C154.342 61.5671 155.103 61.6974 155.663 61.9255C155.886 62.0124 155.804 62.36 155.56 62.2948Z" fill="#433735"/>
<path d="M256.096 131.815C257.482 131.772 257.422 133.933 257.553 134.857C257.727 136.111 258.08 137.73 256.998 138.675C256.814 138.838 256.564 138.718 256.537 138.485C256.531 138.425 256.526 138.365 256.52 138.311C256.504 138.175 256.662 138.132 256.759 138.175C256.819 138.202 256.884 138.229 256.944 138.256C256.819 138.289 256.7 138.322 256.575 138.354C257.21 137.387 257.14 136.453 257.004 135.362C256.868 134.265 256.944 132.804 256.004 132.054C255.895 131.973 255.988 131.821 256.096 131.815Z" fill="black"/>
<path d="M254.515 132.875C255.379 134.298 255.585 136.943 254.884 138.458C254.803 138.637 254.542 138.534 254.537 138.366C254.499 137.453 254.721 136.557 254.667 135.634C254.613 134.722 254.346 133.853 254.265 132.946C254.249 132.804 254.45 132.766 254.515 132.875Z" fill="black"/>
<path d="M227.748 144.367C227.933 144.932 228.107 145.503 228.357 146.046C228.585 146.54 228.933 146.974 229.151 147.469C229.254 147.702 228.993 147.93 228.786 147.746C227.939 146.985 227.471 145.513 227.39 144.411C227.379 144.205 227.689 144.177 227.748 144.367Z" fill="black"/>
<path d="M226.543 146.301C226.717 146.926 226.999 147.442 227.287 148.012C227.407 148.256 227.075 148.566 226.885 148.321C226.45 147.767 226.255 147.04 226.2 146.344C226.189 146.149 226.494 146.116 226.543 146.301Z" fill="black"/>
<path d="M267.704 131.74C265.987 132.772 264.193 133.641 262.487 134.716C260.998 135.65 259.432 136.53 257.661 136.763C257.4 136.796 257.345 136.362 257.601 136.307C259.655 135.856 261.34 134.868 263.09 133.749C264.438 132.886 266.014 131.707 267.661 131.588C267.747 131.588 267.769 131.702 267.704 131.74Z" fill="black"/>
<path d="M254.721 137.116C250.384 139.365 246.292 142.14 241.846 144.171C239.814 145.1 237.678 145.746 235.482 146.197C233.406 146.621 230.95 147.196 228.835 146.968C228.618 146.947 228.542 146.626 228.781 146.566C231.042 145.996 233.498 146.045 235.797 145.545C238.107 145.04 240.319 144.296 242.444 143.253C246.553 141.244 250.286 138.409 254.569 136.763C254.775 136.682 254.911 137.013 254.721 137.116Z" fill="black"/>
<path d="M235.054 168.003C234.363 167.204 233.662 166.417 232.863 165.727C232.412 165.336 230.103 163.288 229.396 163.973C229.331 164.038 229.2 163.973 229.233 163.88C229.586 162.794 231.13 163.918 231.646 164.255C233.081 165.2 234.342 166.4 235.222 167.878C235.287 167.975 235.135 168.095 235.054 168.003Z" fill="black"/>
<path d="M240.221 167.367C242.341 165.271 245.162 163.81 248.172 163.69C248.259 163.685 248.276 163.821 248.194 163.842C245.281 164.505 242.705 165.597 240.46 167.606C240.297 167.747 240.069 167.519 240.221 167.367Z" fill="black"/>
<path d="M235.265 169.387C232.673 170.3 230.64 171.913 230.042 174.72C229.912 174.623 229.781 174.519 229.651 174.422C230.319 173.993 230.901 173.46 231.39 172.836C231.738 172.391 231.988 171.799 232.395 171.402C232.841 170.973 233.542 170.826 234.069 171.169C234.102 171.19 234.08 171.245 234.042 171.228C232.868 170.794 232.2 172.613 231.645 173.292C231.145 173.911 230.553 174.405 229.917 174.878C229.716 175.03 229.488 174.78 229.526 174.579C230.064 171.913 232.363 169.257 235.221 169.094C235.406 169.083 235.417 169.333 235.265 169.387Z" fill="black"/>
<path d="M268.015 149.386C265.362 147.746 262.939 145.736 261.488 142.923C261.308 142.576 261.835 142.266 262.015 142.614C263.422 145.334 265.754 147.268 268.324 148.859C268.656 149.066 268.352 149.592 268.015 149.386Z" fill="black"/>
<path d="M236.303 146.306C236.118 149.048 235.716 151.726 235.77 154.485C235.83 157.379 236.199 160.252 236.83 163.076C236.89 163.343 236.477 163.462 236.417 163.19C235.792 160.41 235.411 157.591 235.341 154.74C235.27 151.965 235.324 148.967 236.074 146.273C236.107 146.148 236.308 146.17 236.303 146.306Z" fill="black"/>
<path d="M236.798 164.271C237.059 164.706 237.102 165.276 237.194 165.765C237.276 166.199 237.45 166.693 237.309 167.128C237.281 167.209 237.178 167.22 237.129 167.15C236.863 166.764 236.874 166.215 236.792 165.765C236.705 165.298 236.531 164.809 236.564 164.331C236.575 164.211 236.733 164.157 236.798 164.271Z" fill="black"/>
<path d="M232.439 146.599C232.515 148.766 232.428 150.944 232.406 153.111C232.384 155.137 232.2 157.233 232.401 159.248C232.738 162.572 235.971 164.261 237.183 167.177C237.265 167.373 236.928 167.514 236.841 167.324C235.569 164.511 232.444 162.936 231.939 159.726C231.629 157.755 231.874 155.637 231.906 153.649C231.944 151.303 231.917 148.94 232.058 146.594C232.069 146.355 232.428 146.355 232.439 146.599Z" fill="black"/>
<path d="M207.836 84.0723C207.88 88.1238 203.614 90.6818 199.967 91.0402C199.679 91.0674 199.663 90.6492 199.902 90.5623C201.614 89.9323 203.347 89.6065 204.864 88.5094C206.309 87.4558 207.38 85.8754 207.581 84.0778C207.597 83.9094 207.836 83.904 207.836 84.0723Z" fill="#C1ADA4"/>
<path d="M197.684 91.0137C197.113 91.1386 196.531 91.1332 195.95 91.1386C195.357 91.1495 194.792 91.1712 194.227 90.9703C194.097 90.9214 194.097 90.7476 194.227 90.6987C194.792 90.5032 195.357 90.5249 195.95 90.5304C196.531 90.5412 197.113 90.5304 197.684 90.6553C197.857 90.6987 197.857 90.9757 197.684 91.0137Z" fill="#C1ADA4"/>
<path d="M236.553 105.694C236.651 104.683 236.961 103.815 237.64 103.043C238.162 102.451 239.249 101.577 240.085 101.789C240.232 101.827 240.303 102.039 240.178 102.142C239.89 102.386 239.553 102.43 239.216 102.587C238.803 102.783 238.433 103.049 238.102 103.358C237.439 103.977 236.922 104.819 236.77 105.715C236.754 105.846 236.542 105.819 236.553 105.694Z" fill="#C1ADA4"/>
<path d="M186.603 65.4336C186.157 63.9781 187.641 61.04 189.423 61.6645C189.945 61.8492 189.614 62.099 189.206 61.9904C188.771 61.8709 187.929 63.3155 187.799 63.5654C187.467 64.1953 187.413 64.9177 187.092 65.5368C187.027 65.6671 186.641 65.5531 186.603 65.4336Z" fill="#CC6144"/>
<path d="M187.662 63.3324C187.679 62.8491 188.114 62.5992 188.565 62.6427C188.804 62.6698 189.065 62.7459 189.255 62.8979C189.369 62.9848 189.527 63.1803 189.402 63.3107C189.331 63.3813 189.146 63.3053 189.086 63.2618C188.907 63.1369 188.815 62.9305 188.608 63.0229C188.412 63.1043 188.277 63.289 188.211 63.4845C188.162 63.6365 187.657 63.4953 187.662 63.3324Z" fill="#CC6144"/>
<path d="M173.315 63.3435C173.239 63.892 172.864 64.2451 172.299 64.2288C172.277 64.2288 172.114 64.1853 172.163 64.1419C172.299 64.0224 172.473 63.9463 172.614 63.8214C172.777 63.6748 172.957 63.4739 173.038 63.2675C173.071 63.1969 173.332 63.262 173.315 63.3435Z" fill="#CC6144"/>
<path d="M211.287 100.251C211.086 105.97 210.385 111.667 209.657 117.337C209.282 120.248 209.119 123.583 208.315 126.32C208.228 126.613 207.831 126.483 207.874 126.2C207.874 126.195 207.874 126.195 207.874 126.19C207.912 125.896 208.358 126.021 208.315 126.309C208.315 126.314 208.315 126.314 208.315 126.32C208.168 126.282 208.021 126.238 207.874 126.2C207.836 126.331 207.863 125.717 207.874 125.576C207.923 124.995 208.037 124.408 208.119 123.827C208.434 121.606 208.738 119.385 209.026 117.163C209.755 111.537 210.401 105.9 210.929 100.251C210.945 100.023 211.298 100.012 211.287 100.251Z" fill="#C1ADA4"/>
<path d="M201.44 125.223C203.673 125.712 205.744 126.728 207.82 127.705C209.961 128.71 212.173 129.666 214.124 131.013C214.266 131.11 214.184 131.355 214.005 131.3C209.581 129.97 205.548 127.32 201.337 125.484C201.179 125.413 201.293 125.191 201.44 125.223Z" fill="#C1ADA4"/>
<path d="M162.962 149.239C163.554 151.357 163.685 153.437 164.57 155.506C165.505 157.684 166.886 159.373 168.348 161.209C168.527 161.432 168.255 161.709 168.032 161.524C166.244 160.058 164.924 157.836 164.022 155.735C163.201 153.828 162.359 151.346 162.696 149.239C162.723 149.098 162.929 149.114 162.962 149.239Z" fill="#C1ADA4"/>
<path d="M257.759 129.927C258.265 128.216 258.662 126.435 258.694 124.643C258.732 122.801 258.254 121.118 257.971 119.326C257.939 119.103 258.243 118.924 258.368 119.157C260.053 122.324 259.602 126.94 258.102 130.068C258.009 130.264 257.705 130.128 257.759 129.927Z" fill="#C1ADA4"/>
<path d="M252.884 132.294C253.302 131.208 253.775 130.133 254.085 129.009C254.199 128.585 254.693 127.244 254.438 126.929C253.438 126.467 252.894 126.69 252.807 127.597C252.742 127.982 252.715 128.373 252.726 128.764C252.726 128.944 252.443 128.992 252.405 128.808C252.183 127.836 253.041 124.566 254.579 125.772C255.248 126.299 254.9 127.624 254.759 128.297C254.449 129.731 253.764 131.072 253.188 132.414C253.112 132.593 252.818 132.468 252.884 132.294Z" fill="#C1ADA4"/>
<path d="M242.51 138.725C243.667 136.862 244.189 134.989 244.782 132.909C244.82 132.784 244.999 132.811 245.004 132.941C245.091 135.081 244.048 137.27 242.727 138.894C242.624 139.013 242.428 138.861 242.51 138.725Z" fill="#C1ADA4"/>
<path d="M233.216 142.347C231.597 142.201 229.45 140.995 229.189 139.219C229.167 139.067 229.352 138.904 229.482 139.051C229.988 139.637 230.341 140.305 230.944 140.816C231.607 141.375 232.434 141.772 233.265 142.005C233.45 142.049 233.423 142.369 233.216 142.347Z" fill="#C1ADA4"/>
<path d="M233.172 140.538C232.118 140.175 230.814 139.24 230.629 138.051C230.607 137.91 230.787 137.752 230.906 137.894C231.259 138.312 231.515 138.795 231.912 139.181C232.325 139.588 232.819 139.903 233.346 140.137C233.569 140.24 233.412 140.62 233.172 140.538Z" fill="#C1ADA4"/>
<path d="M173.679 77.1265C173.19 76.9255 172.853 77.2459 172.402 77.3708C172.353 77.3817 172.217 77.3708 172.201 77.3057C172.103 76.9418 172.597 76.8169 172.88 76.7897C173.233 76.7572 173.619 76.8223 173.907 77.0504C174.065 77.1753 173.739 77.1536 173.679 77.1265Z" fill="#CC6144"/>
<path d="M16.2846 52.7814H74.1639C79.0823 52.7814 83.2833 56.3278 84.1094 61.1722L89.1093 90.5591C90.1582 96.7123 85.4083 102.328 79.1638 102.328H78.8704L81.1258 114.374L69.9955 102.328H21.29C16.3716 102.328 12.1706 98.7815 11.3445 93.9371L6.3446 64.5503C5.29027 58.397 10.0402 52.7814 16.2846 52.7814Z" fill="#699DEE"/>
<path d="M49.496 63.8596C43.3277 64.1909 37.143 64.2724 30.9693 64.4081C27.9258 64.4733 24.8824 64.5439 21.839 64.6091C18.7466 64.6797 15.5239 65.0055 12.4424 64.7231C12.1218 64.696 11.9859 64.1637 12.3609 64.1149C15.2848 63.713 18.3499 63.8759 21.3064 63.8053C24.4368 63.7347 27.5726 63.6641 30.7029 63.5935C36.9637 63.4523 43.2353 63.2459 49.496 63.3057C49.8602 63.3002 49.8602 63.8433 49.496 63.8596Z" fill="white"/>
<path d="M51.1641 71.3554C45.1371 71.703 39.1046 71.8713 33.0721 71.8442C30.0993 71.8333 27.1211 71.7736 24.1483 71.665C21.2516 71.5618 18.268 71.5889 15.3985 71.1436C14.9909 71.0784 15.105 70.4539 15.4909 70.4484C18.4528 70.3724 21.4528 70.7145 24.4147 70.8177C27.3874 70.9209 30.3602 70.9752 33.3384 70.9861C39.2839 71.0024 45.224 70.834 51.1587 70.4864C51.7293 70.4539 51.7239 71.3282 51.1641 71.3554Z" fill="white"/>
<path d="M51.1212 77.3396C45.6757 77.8338 40.203 78.3715 34.7357 78.5779C29.2793 78.7843 23.7794 78.4584 18.3284 78.2683C17.611 78.2412 17.6056 77.117 18.3284 77.1495C23.7848 77.3614 29.2684 77.7687 34.7357 77.5894C40.203 77.4102 45.6539 76.8237 51.1212 76.6227C51.5886 76.6064 51.5777 77.2962 51.1212 77.3396Z" fill="white"/>
<path d="M78.8599 82.8903C63.3384 84.1775 47.6811 84.2589 32.1162 84.3947C28.4097 84.4273 24.6761 84.5033 20.9751 84.3404C20.3664 84.3132 20.361 83.4063 20.9751 83.3954C28.1652 83.227 35.3661 83.3791 42.5562 83.3085C50.9528 83.227 59.3494 83.0804 67.7405 82.8034C71.447 82.6785 75.1589 82.5862 78.8653 82.3689C79.1968 82.3472 79.1914 82.8632 78.8599 82.8903Z" fill="white"/>
<path d="M79.5169 88.1687C64.1693 89.4449 48.7023 89.673 33.3112 89.8685C29.6483 89.9174 25.9581 90.0043 22.2951 89.8414C21.6865 89.8142 21.681 88.9073 22.2951 88.8964C29.4798 88.728 36.6807 88.8421 43.8708 88.7335C52.0881 88.6086 60.3107 88.4185 68.5225 88.1089C72.1909 87.9731 75.8593 87.8645 79.5223 87.6473C79.8538 87.6256 79.8484 88.1415 79.5169 88.1687Z" fill="white"/>
<path d="M76.604 60.8787C77.3268 63.5181 77.392 66.2444 77.4029 68.9653C77.4084 70.3448 77.4084 71.7297 77.5116 73.1092C77.6203 74.5538 78.1366 75.9441 78.2127 77.3724C78.2399 77.8775 77.5279 78.0296 77.2834 77.6223C76.7073 76.6556 76.6312 75.4173 76.5008 74.3094C76.3268 72.8593 76.3051 71.4038 76.3051 69.9429C76.2997 66.9885 76.3703 64.0449 75.528 61.1774C75.3214 60.4822 76.4138 60.1835 76.604 60.8787Z" fill="white"/>
<path d="M75.5169 61.2485C68.5334 61.3842 61.5879 61.6123 54.6423 62.389C54.8543 62.112 55.0662 61.8296 55.2782 61.5526C56.0227 66.8804 56.501 72.1918 56.4901 77.5739C56.4901 78.6275 54.8434 78.6329 54.8489 77.5739C54.8869 72.2841 54.6586 66.9727 53.9793 61.7264C53.9304 61.3462 54.3217 61.0964 54.6423 61.0638C61.5553 60.3632 68.5714 59.9939 75.5169 60.4121C76.0495 60.4447 76.0604 61.2376 75.5169 61.2485Z" fill="white"/>
<path d="M77.0006 78.3723C73.5604 77.9813 70.1039 77.8401 66.6475 77.9922C65.0062 78.0628 63.3649 78.1985 61.7291 78.3886C60.778 78.5027 59.8269 78.6439 58.8813 78.7851C58.0715 78.9046 57.4628 79.1164 56.6911 78.8177C56.2944 78.6656 56.0389 78.1225 56.4194 77.7912C57.5335 76.8082 59.528 76.8843 60.9573 76.7376C62.7617 76.553 64.5768 76.4444 66.3866 76.4063C70.0007 76.3357 73.5984 76.5856 77.1745 77.0852C77.9027 77.1884 77.7397 78.4538 77.0006 78.3723Z" fill="white"/>
<path d="M73.7775 64.1809C74.0384 66.9833 74.2449 69.7965 74.3645 72.6097C74.3916 73.2995 73.2775 73.3049 73.2884 72.6097C73.3428 69.7911 73.2775 66.9941 73.0656 64.1809C73.033 63.7247 73.7341 63.7301 73.7775 64.1809Z" fill="white"/>
<path d="M73.708 73.1478C68.2135 73.4954 62.6484 73.7778 57.143 73.7886C56.4365 73.7886 56.4474 72.7405 57.143 72.7025C62.6375 72.382 68.2026 72.3332 73.708 72.344C74.2297 72.344 74.2243 73.1152 73.708 73.1478Z" fill="white"/>
<path d="M71.2403 70.8064C71.0229 70.1492 70.8001 69.4867 70.5827 68.8295C70.398 68.2756 70.2349 67.1731 69.8327 66.7495C68.7132 65.571 67.1263 69.1825 66.7839 69.6876C66.1317 70.6543 64.9687 71.3875 64.11 70.1764C63.534 69.3672 63.5068 68.2701 63.0775 67.3958C63.0503 66.9341 62.8003 66.6572 62.3275 66.5648C62.1264 66.8201 61.9253 67.0699 61.7297 67.3252C61.4036 67.7379 61.0884 68.243 60.659 68.5688C60.2351 68.8893 59.746 69.0087 59.2406 68.7969C58.3928 68.4385 58.3765 67.2491 57.5884 66.8907C55.8711 66.1141 59.0395 64.2893 58.8493 66.1684C58.7841 66.8038 59.4091 67.9226 60.121 67.5533C60.5612 67.3252 60.9688 66.5865 61.3057 66.2227C61.7242 65.7665 62.2622 65.0713 62.9851 65.3537C63.5068 65.5601 63.6155 66.1901 63.7894 66.6517C64.0394 67.3252 64.3166 67.9932 64.5829 68.6557C64.6209 69.2531 64.9307 69.5518 65.5176 69.5573C65.735 69.2912 65.9361 69.0142 66.1154 68.7209C66.8382 67.6673 67.8002 65.3103 69.4686 65.5873C70.1534 65.7013 70.4686 66.2009 70.7403 66.7875C71.2947 67.9823 71.6099 69.3509 72.0229 70.6C72.1805 71.0834 71.4034 71.2952 71.2403 70.8064Z" fill="white"/>
<path d="M100.952 4.56537H139.077C142.316 4.56537 145.082 6.90067 145.625 10.0941L148.919 29.4499C149.609 33.5014 146.484 37.2053 142.37 37.2053H142.174L145.99 42.7558L136.327 37.2053H104.246C101.007 37.2053 98.2351 34.87 97.697 31.6766L94.4036 12.3208C93.7134 8.26384 96.8384 4.56537 100.952 4.56537Z" fill="#818181"/>
<path d="M140.055 11.332C133.126 11.6905 126.18 11.8262 119.24 12.0109C115.816 12.1032 112.392 12.1955 108.968 12.2879C105.485 12.3802 101.903 12.7169 98.4251 12.4888C98.0773 12.4671 98.0882 11.9946 98.4251 11.9566C101.8 11.5493 105.3 11.685 108.697 11.5927C112.213 11.4949 115.724 11.3972 119.24 11.2994C126.175 11.1094 133.115 10.865 140.055 10.8432C140.37 10.8432 140.365 11.3157 140.055 11.332Z" fill="white"/>
<path d="M141.81 16.2739C135.136 16.5944 128.463 16.8007 121.783 16.8822C118.534 16.9202 115.284 16.9311 112.034 16.9148C108.621 16.8931 105.148 16.9963 101.746 16.6976C101.36 16.665 101.349 16.1001 101.746 16.0839C105.072 15.9481 108.43 16.149 111.762 16.1707C115.099 16.1925 118.441 16.1816 121.778 16.1382C128.457 16.0567 135.131 15.8503 141.805 15.5245C142.294 15.5027 142.294 16.2522 141.81 16.2739Z" fill="white"/>
<path d="M142.87 20.7381C129.914 21.7428 116.855 21.846 103.871 21.3898C103.398 21.3735 103.393 20.6349 103.871 20.6512C116.887 21.1291 129.865 20.8847 142.87 20.2656C143.175 20.2547 143.169 20.7164 142.87 20.7381Z" fill="white"/>
<path d="M143.908 25.5552C135.001 26.3372 125.93 26.8369 116.99 26.5164C116.588 26.5001 116.588 25.8973 116.99 25.8919C125.974 25.7452 134.93 25.6909 143.908 25.2076C144.131 25.1967 144.125 25.5334 143.908 25.5552Z" fill="white"/>
<path d="M236.618 15.3998H288.802C293.236 15.3998 297.024 18.5986 297.769 22.9651L302.274 49.4627C303.22 55.0131 298.937 60.0747 293.307 60.0747H249.199L241.504 69.7635L241.194 60.0747H241.123C236.689 60.0747 232.901 56.8759 232.156 52.5094L227.651 26.0119C226.705 20.4614 230.988 15.3998 236.618 15.3998Z" fill="#FF6652"/>
<path d="M270.286 25.1873C264.101 25.4534 257.911 25.562 251.721 25.7086C248.672 25.7792 245.624 25.8498 242.575 25.9204C239.45 25.991 236.276 26.2354 233.156 26.0779C232.901 26.0671 232.906 25.7086 233.156 25.6815C236.178 25.3882 239.27 25.4751 242.303 25.4045C245.444 25.3285 248.58 25.2524 251.721 25.1818C257.906 25.0352 264.096 24.8505 270.286 24.8288C270.514 24.8288 270.514 25.1764 270.286 25.1873Z" fill="white"/>
<path d="M271.932 31.8989C265.987 32.2302 260.03 32.404 254.074 32.404C248.161 32.404 242.08 32.5235 236.194 31.8663C235.911 31.8338 235.895 31.4156 236.194 31.4156C242.15 31.3993 248.112 31.8609 254.074 31.8555C260.03 31.8501 265.987 31.6763 271.932 31.345C272.286 31.3232 272.286 31.8772 271.932 31.8989Z" fill="white"/>
<path d="M293.992 37.4336C276.248 38.7207 258.384 38.9054 240.612 38.2645C240.178 38.2483 240.178 37.5748 240.612 37.5911C258.422 38.232 276.199 37.9441 293.992 37.0046C294.274 36.9883 294.269 37.4119 293.992 37.4336Z" fill="white"/>
<path d="M295.416 44.054C283.209 45.0587 270.818 45.705 258.568 45.3085C258.204 45.2977 258.199 44.7437 258.568 44.7383C270.873 44.5808 283.128 44.4722 295.416 43.739C295.617 43.7281 295.617 44.0377 295.416 44.054Z" fill="white"/>
<path d="M292.149 22.4815C292.519 25.034 293.062 27.6681 293.236 30.2423C293.339 31.7847 292.606 32.5287 291.106 32.7786C288.519 33.2185 285.829 33.3054 283.215 33.5389C281.649 33.6801 278.796 34.321 277.503 33.0284C276.872 32.3984 277.03 31.4371 277.073 30.6333C277.133 29.4874 277.264 28.3469 277.264 27.201C277.264 25.7618 276.845 24.5833 276.525 23.2147C276.378 22.5901 276.345 21.9656 276.769 21.4279C277.791 20.1353 280.351 20.6078 281.758 20.6133C284.622 20.6241 287.486 20.7001 290.345 20.7545C291.236 20.7708 291.198 22.2154 290.345 22.1122C286.633 21.6777 282.813 21.4062 279.073 21.5854C278.253 21.6234 277.41 21.5745 277.427 22.9649C277.432 23.2853 277.671 23.6763 277.758 23.9804C277.976 24.7136 278.079 25.4685 278.112 26.2343C278.15 27.0489 278.09 27.8636 278.019 28.6728C277.948 29.5146 277.671 30.5356 277.785 31.372C277.987 32.86 279.182 33.023 280.448 32.9849C281.372 32.9578 282.291 32.8437 283.215 32.7677C285.095 32.6102 286.975 32.469 288.856 32.3169C289.622 32.2572 291.084 32.4201 291.763 32.0291C292.263 31.7413 292.682 30.7854 292.715 30.2423C292.747 29.7101 292.53 28.9063 292.454 28.3578C292.193 26.4461 291.867 24.5453 291.59 22.639C291.535 22.2697 292.095 22.1122 292.149 22.4815Z" fill="white"/>
<path d="M286.726 28.537C286.492 27.2879 286.383 26.017 286.237 24.7571C286.302 24.8711 286.367 24.9851 286.432 25.1046C286.204 24.9526 283.992 27.6137 283.742 27.8961C283.677 27.6463 283.612 27.3965 283.546 27.1467C284.508 27.5377 285.476 27.9124 286.432 28.3143C286.965 28.537 286.742 29.4222 286.188 29.1996C285.22 28.814 284.269 28.4066 283.307 28.0102C282.992 27.8798 282.867 27.5323 283.112 27.2607C283.726 26.571 284.345 25.8975 285.003 25.2513C285.372 24.8874 285.932 24.1325 286.552 24.2628C287.155 24.3932 287.068 25.0503 287.117 25.5282C287.215 26.5004 287.329 27.4779 287.362 28.4555C287.362 28.8031 286.791 28.8954 286.726 28.537Z" fill="white"/>
<path d="M62.365 131.344C61.6656 131.344 61.0987 130.777 61.0987 130.079C61.0987 129.38 61.6656 128.813 62.365 128.813C63.0643 128.813 63.6313 129.38 63.6313 130.079C63.6313 130.777 63.0643 131.344 62.365 131.344Z" fill="#2D2442"/>
<path d="M58.3546 131.344C57.6553 131.344 57.0883 130.777 57.0883 130.079C57.0883 129.38 57.6553 128.813 58.3546 128.813C59.054 128.813 59.6209 129.38 59.6209 130.079C59.6209 130.777 59.054 131.344 58.3546 131.344Z" fill="#2D2442"/>
<path d="M54.3489 131.344C53.6496 131.344 53.0827 130.777 53.0827 130.079C53.0827 129.38 53.6496 128.813 54.3489 128.813C55.0483 128.813 55.6152 129.38 55.6152 130.079C55.6152 130.777 55.0483 131.344 54.3489 131.344Z" fill="#2D2442"/>
<path d="M57.4737 36.1236C56.7743 36.1236 56.2074 35.5571 56.2074 34.8582C56.2074 34.1593 56.7743 33.5928 57.4737 33.5928C58.173 33.5928 58.74 34.1593 58.74 34.8582C58.74 35.5571 58.173 36.1236 57.4737 36.1236Z" fill="#2D2442"/>
<path d="M53.4633 36.1236C52.764 36.1236 52.1971 35.5571 52.1971 34.8582C52.1971 34.1593 52.764 33.5928 53.4633 33.5928C54.1627 33.5928 54.7296 34.1593 54.7296 34.8582C54.7296 35.5571 54.1627 36.1236 53.4633 36.1236Z" fill="#2D2442"/>
<path d="M49.4576 36.1236C48.7583 36.1236 48.1914 35.5571 48.1914 34.8582C48.1914 34.1593 48.7583 33.5928 49.4576 33.5928C50.157 33.5928 50.7239 34.1593 50.7239 34.8582C50.7239 35.5571 50.157 36.1236 49.4576 36.1236Z" fill="#2D2442"/>
<path d="M284.981 84.638C284.282 84.638 283.715 84.0714 283.715 83.3726C283.715 82.6737 284.282 82.1072 284.981 82.1072C285.68 82.1072 286.247 82.6737 286.247 83.3726C286.247 84.0714 285.68 84.638 284.981 84.638Z" fill="#2D2442"/>
<path d="M280.975 84.638C280.276 84.638 279.709 84.0714 279.709 83.3726C279.709 82.6737 280.276 82.1072 280.975 82.1072C281.675 82.1072 282.241 82.6737 282.241 83.3726C282.241 84.0714 281.675 84.638 280.975 84.638Z" fill="#2D2442"/>
<path d="M276.965 84.638C276.265 84.638 275.699 84.0714 275.699 83.3726C275.699 82.6737 276.265 82.1072 276.965 82.1072C277.664 82.1072 278.231 82.6737 278.231 83.3726C278.231 84.0714 277.664 84.638 276.965 84.638Z" fill="#2D2442"/>
</svg>
